<?xml version="1.0" encoding="UTF-8"?>
<svg xmlns="http://www.w3.org/2000/svg" viewBox="0 0 480 360" role="img" aria-label="Empty wishlist illustration">
  <defs>
    <linearGradient id="ec-grad" x1="0" y1="0" x2="1" y2="1">
      <stop offset="0%" stop-color="#fe424d"/>
      <stop offset="100%" stop-color="#ff7b88"/>
    </linearGradient>
  </defs>
  <ellipse cx="240" cy="320" rx="170" ry="14" fill="#fe424d" opacity="0.12"/>
  <g transform="translate(140 80)">
    <path d="M10 40 L40 40 L70 200 L210 200 L240 90 L70 90"
          fill="none" stroke="#fe424d" stroke-width="6"
          stroke-linecap="round" stroke-linejoin="round"/>
    <circle cx="100" cy="230" r="14" fill="url(#ec-grad)"/>
    <circle cx="190" cy="230" r="14" fill="url(#ec-grad)"/>
  </g>
  <g transform="translate(220 130)" fill="#fe424d">
    <path d="M30 18 a16 16 0 0 1 28-10 a16 16 0 0 1 28 10 c0 18 -28 36 -28 36 s-28 -18 -28 -36 z" opacity="0.85"/>
  </g>
  <g fill="#fe424d" opacity="0.5">
    <circle cx="80" cy="110" r="4"/>
    <circle cx="400" cy="90" r="3"/>
    <circle cx="420" cy="200" r="5"/>
    <circle cx="60" cy="240" r="3"/>
  </g>
</svg>
