<?xml version="1.0" encoding="UTF-8"?>
<svg xmlns="http://www.w3.org/2000/svg" viewBox="0 0 480 480" role="img" aria-label="Welcome to WanderLust illustration">
  <defs>
    <linearGradient id="w-red" x1="0" y1="0" x2="1" y2="1">
      <stop offset="0%" stop-color="#fe424d"/>
      <stop offset="100%" stop-color="#ff7b88"/>
    </linearGradient>
    <radialGradient id="w-glow" cx="0.5" cy="0.5" r="0.5">
      <stop offset="0%" stop-color="#fe424d" stop-opacity="0.18"/>
      <stop offset="100%" stop-color="#fe424d" stop-opacity="0"/>
    </radialGradient>
  </defs>
  <circle cx="240" cy="240" r="220" fill="url(#w-glow)"/>
  <!-- envelope -->
  <g transform="translate(100 160)">
    <rect x="0" y="0" width="280" height="180" rx="14" fill="url(#w-red)"/>
    <path d="M0 14 L140 110 L280 14" fill="none" stroke="#fff" stroke-width="6" stroke-linejoin="round"/>
    <path d="M0 180 L120 100 M280 180 L160 100" stroke="#fff" stroke-width="3" opacity="0.6"/>
  </g>
  <!-- heart -->
  <g transform="translate(220 220)">
    <path d="M0 18 a18 18 0 0 1 36 -10 a18 18 0 0 1 36 10 c0 22 -36 44 -36 44 s-36 -22 -36 -44 z"
          fill="#fff" stroke="#fe424d" stroke-width="3"/>
  </g>
  <!-- sparkles -->
  <g fill="#fe424d">
    <path d="M80 100 l4 12 l12 4 l-12 4 l-4 12 l-4 -12 l-12 -4 l12 -4 z"/>
    <path d="M400 120 l3 9 l9 3 l-9 3 l-3 9 l-3 -9 l-9 -3 l9 -3 z"/>
    <path d="M120 380 l3 9 l9 3 l-9 3 l-3 9 l-3 -9 l-9 -3 l9 -3 z" opacity="0.7"/>
    <path d="M380 360 l4 12 l12 4 l-12 4 l-4 12 l-4 -12 l-12 -4 l12 -4 z" opacity="0.7"/>
  </g>
</svg>
